<svg width="225" height="225" viewBox="0 0 225 225" fill="none" xmlns="http://www.w3.org/2000/svg">
<path d="M144.521 4.73844C145.208 4.95275 145.895 5.16705 146.604 5.38785C176.474 15.0177 199.301 35.9966 213.521 63.7384C219.83 76.4303 224.048 90.4918 224.521 104.738C224.559 105.723 224.559 105.723 224.599 106.728C224.908 115.601 224.738 124.227 223.208 132.988C223.09 133.667 222.973 134.345 222.852 135.043C221.935 139.751 220.475 143.178 218.521 147.738C207.631 147.738 196.741 147.738 185.521 147.738C185.191 117.048 184.861 86.3584 184.521 54.7384C161.091 78.1684 137.661 101.598 113.521 125.738C110.299 124.128 108.812 123.279 106.42 120.878C105.834 120.295 105.248 119.712 104.644 119.111C104.013 118.473 103.382 117.835 102.732 117.177C102.059 116.504 101.385 115.831 100.691 115.137C98.4682 112.913 96.2522 110.681 94.0362 108.449C92.4954 106.905 90.9541 105.361 89.4124 103.817C85.3572 99.7542 81.3081 95.6854 77.2601 91.6153C72.4013 86.7324 67.535 81.857 62.67 76.9803C55.2811 69.572 47.9018 62.1544 40.5206 54.7384C40.1906 85.4284 39.8606 116.118 39.5206 147.738C28.3006 147.738 17.0806 147.738 5.52058 147.738C4.88121 145.098 4.24183 142.458 3.58308 139.738C3.38336 138.924 3.18364 138.109 2.97786 137.27C-3.90911 108.403 1.38606 78.8282 16.4156 53.5114C24.9416 39.8314 36.7342 27.1408 50.5206 18.7384C51.5776 18.0836 52.6346 17.4288 53.7237 16.7541C80.6894 0.468847 114.17 -4.78859 144.521 4.73844Z" fill="#9CC623"/>
<path d="M63.5205 111.738C64.1805 111.738 64.8405 111.738 65.5205 111.738C66.9357 113.167 66.9357 113.167 68.592 115.168C75.0061 122.705 82.0939 129.614 89.0642 136.632C90.8375 138.422 92.6053 140.217 94.3679 142.018C96.9212 144.626 99.4902 147.217 102.063 149.805C103.246 151.022 103.246 151.022 104.453 152.263C105.191 152.998 105.929 153.733 106.689 154.491C107.334 155.144 107.979 155.797 108.644 156.47C110.414 157.929 110.414 157.929 112.481 157.701C115.199 156.418 116.873 154.73 118.982 152.586C119.856 151.705 120.73 150.824 121.631 149.917C122.576 148.95 123.521 147.983 124.466 147.016C125.441 146.03 126.417 145.045 127.394 144.061C129.961 141.471 132.519 138.873 135.075 136.273C139.172 132.106 143.277 127.946 147.391 123.795C148.827 122.342 150.258 120.882 151.688 119.421C152.99 118.105 152.99 118.105 154.318 116.762C155.466 115.594 155.466 115.594 156.637 114.402C158.521 112.738 158.521 112.738 160.521 112.738C160.521 131.878 160.521 151.018 160.521 170.738C176.031 170.738 191.541 170.738 207.521 170.738C195.244 195.292 171.021 210.945 145.771 219.613C117.392 228.402 85.8333 225.269 59.5376 211.716C43.2239 202.764 27.2136 188.815 17.5205 172.738C17.5205 172.078 17.5205 171.418 17.5205 170.738C32.7005 170.738 47.8805 170.738 63.5205 170.738C63.5205 151.268 63.5205 131.798 63.5205 111.738Z" fill="#4D4D4D"/>
</svg>
